{
    "asset" : {
        "generator" : "Khronos glTF Blender I/O v1.7.33",
        "version" : "2.0"
    },
    "scene" : 0,
    "scenes" : [
        {
            "name" : "Scene",
            "nodes" : [
                0,
                1,
                2,
                3
            ]
        }
    ],
    "nodes" : [
        {
            "mesh" : 0,
            "name" : "Cone",
            "rotation" : [
                0,
                0.3826834559440613,
                0,
                0.9238795042037964
            ]
        },
        {
            "mesh" : 1,
            "name" : "Cylinder",
            "scale" : [
                0.09367614984512329,
                0.1069999635219574,
                0.09367614984512329
            ],
            "translation" : [
                0,
                1.0740306377410889,
                0
            ]
        },
        {
            "mesh" : 2,
            "name" : "Cylinder.001",
            "scale" : [
                -0.04925644397735596,
                1,
                -0.04925644397735596
            ],
            "translation" : [
                0,
                -1.0431960821151733,
                0
            ]
        },
        {
            "mesh" : 3,
            "name" : "Cylinder.002",
            "scale" : [
                0.11331728100776672,
                0.03311929106712341,
                0.11331728100776672
            ],
            "translation" : [
                0,
                1.204490065574646,
                0
            ]
        }
    ],
    "materials" : [
        {
            "doubleSided" : true,
            "name" : "Wood",
            "pbrMetallicRoughness" : {
                "baseColorFactor" : [
                    0.0404541902244091,
                    0.025300757959485054,
                    0.005139435175806284,
                    1
                ],
                "metallicFactor" : 0
            }
        },
        {
            "doubleSided" : true,
            "name" : "SprinklerHead",
            "pbrMetallicRoughness" : {
                "baseColorFactor" : [
                    0.01260790042579174,
                    0.01260790042579174,
                    0.01260790042579174,
                    1
                ],
                "metallicFactor" : 0,
                "roughnessFactor" : 0.7758620977401733
            }
        },
        {
            "doubleSided" : true,
            "name" : "hose",
            "pbrMetallicRoughness" : {
                "baseColorFactor" : [
                    0.011087973602116108,
                    0.011087973602116108,
                    0.011087973602116108,
                    1
                ],
                "metallicFactor" : 0,
                "roughnessFactor" : 0.5
            }
        }
    ],
    "meshes" : [
        {
            "name" : "Cone",
            "primitives" : [
                {
                    "attributes" : {
                        "POSITION" : 0,
                        "NORMAL" : 1,
                        "TEXCOORD_0" : 2
                    },
                    "indices" : 3,
                    "material" : 0
                }
            ]
        },
        {
            "name" : "Cylinder",
            "primitives" : [
                {
                    "attributes" : {
                        "POSITION" : 4,
                        "NORMAL" : 5,
                        "TEXCOORD_0" : 6
                    },
                    "indices" : 7,
                    "material" : 1
                }
            ]
        },
        {
            "name" : "Cylinder.001",
            "primitives" : [
                {
                    "attributes" : {
                        "POSITION" : 8,
                        "NORMAL" : 9,
                        "TEXCOORD_0" : 10
                    },
                    "indices" : 11,
                    "material" : 2
                }
            ]
        },
        {
            "name" : "Cylinder.002",
            "primitives" : [
                {
                    "attributes" : {
                        "POSITION" : 12,
                        "NORMAL" : 13,
                        "TEXCOORD_0" : 14
                    },
                    "indices" : 7,
                    "material" : 1
                }
            ]
        }
    ],
    "accessors" : [
        {
            "bufferView" : 0,
            "componentType" : 5126,
            "count" : 239,
            "max" : [
                1,
                1,
                1
            ],
            "min" : [
                -1,
                -1,
                -1
            ],
            "type" : "VEC3"
        },
        {
            "bufferView" : 1,
            "componentType" : 5126,
            "count" : 239,
            "type" : "VEC3"
        },
        {
            "bufferView" : 2,
            "componentType" : 5126,
            "count" : 239,
            "type" : "VEC2"
        },
        {
            "bufferView" : 3,
            "componentType" : 5123,
            "count" : 432,
            "type" : "SCALAR"
        },
        {
            "bufferView" : 4,
            "componentType" : 5126,
            "count" : 192,
            "max" : [
                1,
                1,
                1
            ],
            "min" : [
                -1,
                -1,
                -1
            ],
            "type" : "VEC3"
        },
        {
            "bufferView" : 5,
            "componentType" : 5126,
            "count" : 192,
            "type" : "VEC3"
        },
        {
            "bufferView" : 6,
            "componentType" : 5126,
            "count" : 192,
            "type" : "VEC2"
        },
        {
            "bufferView" : 7,
            "componentType" : 5123,
            "count" : 372,
            "type" : "SCALAR"
        },
        {
            "bufferView" : 8,
            "componentType" : 5126,
            "count" : 3520,
            "max" : [
                0.9999992847442627,
                2.0431408882141113,
                5.480710506439209
            ],
            "min" : [
                -1.000001072883606,
                0.08068472146987915,
                -0.9691451787948608
            ],
            "type" : "VEC3"
        },
        {
            "bufferView" : 9,
            "componentType" : 5126,
            "count" : 3520,
            "type" : "VEC3"
        },
        {
            "bufferView" : 10,
            "componentType" : 5126,
            "count" : 3520,
            "type" : "VEC2"
        },
        {
            "bufferView" : 11,
            "componentType" : 5123,
            "count" : 5364,
            "type" : "SCALAR"
        },
        {
            "bufferView" : 12,
            "componentType" : 5126,
            "count" : 192,
            "max" : [
                1,
                1,
                1
            ],
            "min" : [
                -1,
                -1,
                -1
            ],
            "type" : "VEC3"
        },
        {
            "bufferView" : 13,
            "componentType" : 5126,
            "count" : 192,
            "type" : "VEC3"
        },
        {
            "bufferView" : 14,
            "componentType" : 5126,
            "count" : 192,
            "type" : "VEC2"
        }
    ],
    "bufferViews" : [
        {
            "buffer" : 0,
            "byteLength" : 2868,
            "byteOffset" : 0
        },
        {
            "buffer" : 0,
            "byteLength" : 2868,
            "byteOffset" : 2868
        },
        {
            "buffer" : 0,
            "byteLength" : 1912,
            "byteOffset" : 5736
        },
        {
            "buffer" : 0,
            "byteLength" : 864,
            "byteOffset" : 7648
        },
        {
            "buffer" : 0,
            "byteLength" : 2304,
            "byteOffset" : 8512
        },
        {
            "buffer" : 0,
            "byteLength" : 2304,
            "byteOffset" : 10816
        },
        {
            "buffer" : 0,
            "byteLength" : 1536,
            "byteOffset" : 13120
        },
        {
            "buffer" : 0,
            "byteLength" : 744,
            "byteOffset" : 14656
        },
        {
            "buffer" : 0,
            "byteLength" : 42240,
            "byteOffset" : 15400
        },
        {
            "buffer" : 0,
            "byteLength" : 42240,
            "byteOffset" : 57640
        },
        {
            "buffer" : 0,
            "byteLength" : 28160,
            "byteOffset" : 99880
        },
        {
            "buffer" : 0,
            "byteLength" : 10728,
            "byteOffset" : 128040
        },
        {
            "buffer" : 0,
            "byteLength" : 2304,
            "byteOffset" : 138768
        },
        {
            "buffer" : 0,
            "byteLength" : 2304,
            "byteOffset" : 141072
        },
        {
            "buffer" : 0,
            "byteLength" : 1536,
            "byteOffset" : 143376
        }
    ],
    "buffers" : [
        {
            "byteLength" : 144912,
            "uri" : "data:application/octet-stream;base64,"
        }
    ]
}
